<?xml version="1.0" standalone="no"?>
<!DOCTYPE svg PUBLIC "-//W3C//DTD SVG 1.1//EN" "http://www.w3.org/Graphics/SVG/1.1/DTD/svg11.dtd">
<svg xmlns="http://www.w3.org/2000/svg">
<metadata>Copyright (C) 2014 by original authors @ fontello.com</metadata>
<defs>
<font id="nyssfont" horiz-adv-x="1000" >
<font-face font-family="nyssfont" font-weight="400" font-stretch="normal" units-per-em="1000" ascent="850" descent="-150" />
<missing-glyph horiz-adv-x="1000" />
<glyph glyph-name="after" unicode="&#xe800;" d="m520-92c65 65 126 129 188 164 131 74 245 77 245 77v-292h-932v977h932v-360h-133v223h-699v-583h116c56 160 167 138 167 138 33 3 83-18 83-18s-87-262 33-326z m483 703v-188c0 0-490 17-500-463 0 0 217 285 500 223v-223l482 343-482 308z m-399-214c0-33-52-60-116-60s-117 27-117 60c0 0 233-7 233 0z m-308 77c0-109 86-197 191-197 106 0 192 88 192 197 0 108-86 197-192 197-105 0-191-89-191-197z" horiz-adv-x="1464" />
<glyph glyph-name="before" unicode="&#xe801;" d="m1037-124c-69 67-134 133-201 170-140 76-261 79-261 79v-302h996v1013h-996v-373h142v231h747v-605h-124c-60 166-178 143-178 143-36 3-89-18-89-18s92-272-36-338z m-515 729v-196c0 0 522 18 533-480 0 0-231 295-533 231v-231l-516 356 516 320z m426-222c0-35 55-63 124-63s124 28 124 63c0 0-248-8-248 0z m328 79c0-113-91-204-204-204-113 0-204 91-204 204 0 113 91 204 204 204 113 0 204-91 204-204z" horiz-adv-x="1556" />
<glyph glyph-name="view" unicode="&#xe802;" d="m449 584c21 0 37 17 37 40v66c0 22-16 40-37 40s-36-18-36-40v-66c0-23 16-40 36-40l0 0z m0 0l354-460-87 87c-13-20-31-37-51-50l87-87c14-14 37-14 51 0 14 13 14 36 0 50l0 0z m354-460l-243 104 28-11h-514c-22 0-40 18-40 40v527c0 22 18 40 40 40h412c22 0 53-13 69-28l45-43c15-16 28-46 28-68v-428c0-23-18-40-40-40l0 0z m-288 594c0 24-19 43-43 43h-262c-24 0-43-19-43-43v-129c0-23 19-42 43-42h262c24 0 43 19 43 42v129z m225-399c0 100-81 181-181 181-99 0-180-81-180-181s81-180 180-180c100 0 181 81 181 180l0 0z m-181-100c-55 0-100 45-100 100s45 101 100 101 101-45 101-101-45-100-101-100l0 0z m-308-167c3 0 5-1 6-2 2-2 3-4 3-7 0-2 0-3-1-5 0-1 0-3 0-4-4-22-9-46-14-71-5-25-12-50-22-75h-41c-3 0-6 0-7 2-2 2-3 3-4 5-4 12-8 25-11 39-4 13-7 27-10 40-3 14-6 27-8 40-2 13-4 26-6 38h37c5 0 8-3 8-9 1-7 2-15 3-25 2-9 3-19 4-29 2-10 4-21 6-31 2-11 4-21 6-31 2 10 4 20 6 31 2 10 4 21 6 32 1 10 3 21 4 31 1 11 2 21 3 31h32z m48-29c-8 0-14 1-17 4-3 3-5 7-5 14 0 6 2 11 5 14 3 2 9 4 17 4 8 0 14-2 17-4 4-3 5-8 5-14 0-7-1-11-5-14-3-3-9-4-17-4z m20-135h-31c-6 0-9 2-9 8v115h31c6 0 9-3 9-9v-114z m120 4c-4-1-10-3-17-5-7-2-16-2-27-2-9 0-17 1-24 3-7 2-12 6-17 11s-8 12-10 21c-2 8-3 17-3 29 0 23 4 39 13 49 9 10 22 15 40 15 10 0 18-1 24-4 6-2 11-6 14-11 4-4 6-10 7-16 2-7 2-14 2-21 0-2 0-3 0-6 0-2 0-5-1-7 0-2-1-5-1-7s-1-4-2-5h-59c0-8 2-13 6-16 3-4 10-5 18-5 8 0 14 0 18 0 4 0 7 1 10 1 3 0 6-1 7-3 1-1 2-3 2-6v-15z m-31 67c0 10-1 17-3 21-2 3-6 5-11 5-6 0-11-2-13-6-2-4-3-10-3-20h30z m80-71c-3 0-6 0-7 2-1 2-2 3-2 5-6 19-11 37-14 56-4 19-6 39-9 60h31c6 0 9-3 9-9 0-5 1-10 1-17s1-13 1-20 1-14 2-22c1-7 2-13 3-19l17 75h21c3 0 5-1 6-2 2-1 3-3 3-6l15-67c1 6 2 13 3 20 1 8 2 16 2 24 1 8 1 16 2 23s0 14 1 20h29c3 0 5-1 6-3 1-2 2-4 2-6 0-2 0-4 0-6-1-2-1-4-1-7-2-14-5-30-8-47s-8-35-14-54h-30c-3 0-5 0-6 2-1 1-2 2-3 4l-14 62-17-68h-29z" horiz-adv-x="842" />
<glyph glyph-name="cancel" unicode="&#xe803;" d="m3517 124c0-150-121-270-270-270h-2934c-149 0-270 120-270 270v380c0 150 121 270 270 270h2934c149 0 270-120 270-270v-380z m-1832 363c11 0 22-1 32-3 11-2 20-5 26-8 6-3 9-6 11-10s3-9 3-15v-35c-9 0-19 1-28 1-9 1-20 1-31 1-11 0-19-1-26-4-7-3-13-9-17-16-3-8-6-18-8-31-1-13-2-29-2-49 0-21 1-38 3-51 1-14 4-24 8-32 4-8 9-14 15-17s13-5 22-5c11 0 20 1 29 1s16 1 21 1c12 0 17-5 17-17v-39c-10-4-22-8-35-11-13-2-29-4-48-4-18 0-34 3-48 8-15 5-27 15-37 28-10 13-18 30-23 52-6 22-9 50-9 83 0 33 3 60 7 82s12 39 22 53c10 13 23 22 39 28 16 6 35 9 57 9z m181-339c-23 0-41 6-53 20-12 14-18 33-18 58 0 17 3 31 8 41s13 19 22 24c9 5 20 8 32 10 12 2 24 2 36 2h29v15c0 10-3 16-10 19s-18 3-32 3c-13 0-25 0-35-1s-17-1-20-1c-6 0-11 2-13 5-3 3-4 7-4 11v33c9 4 21 8 36 11s32 5 51 5c37 0 64-7 80-23 16-16 25-38 25-67v-162h-46c-4 0-7 0-9 0-2 1-4 2-6 3-1 2-3 4-4 6s-3 6-4 10l-3 7c-6-7-14-13-25-20-10-6-22-9-37-9z m56 109h-31c-10 0-17-2-22-7s-6-11-6-19c0-10 2-17 7-20 5-4 12-6 21-6 12 0 23 3 31 10v42z m206-106h-62c-12 0-18 5-18 16v231h46c7 0 12-2 15-4s5-7 8-15l3-9c11 12 22 21 32 26 11 5 23 7 38 7 45 0 67-28 67-83v-169h-62c-11 0-17 5-17 16v144c0 9-2 15-5 19-3 4-9 6-18 6-4 0-9-1-14-3-6-1-10-4-13-7v-175z m345 9c-8-4-17-8-27-11s-24-5-41-5c-37 0-64 11-80 31-16 21-24 53-24 98 0 45 8 78 24 99s41 31 77 31c12 0 23-1 33-3 10-1 18-4 24-7 6-3 10-6 12-10 1-4 2-9 2-15v-31c-9 1-19 1-28 2s-17 1-22 1c-9 0-16-1-21-3-5-3-10-6-12-11-3-5-5-11-6-19s-1-19-1-31c0-14 0-25 1-33 1-9 3-16 5-21 3-5 6-8 11-10s11-3 18-3c2 0 5 0 8 0 3 0 6 1 10 1 3 0 6 0 9 0 3 0 5 0 7 0 7 0 13-1 16-4 4-3 5-8 5-15v-31z m233 0c-8-3-19-7-34-10-14-4-32-6-53-6-19 0-35 3-49 7s-25 13-34 23c-9 11-16 24-20 41-4 16-6 36-6 59 0 46 8 79 26 99 17 20 44 30 81 30 19 0 35-2 47-8s22-13 29-22 12-20 14-33c3-13 4-27 4-42 0-3 0-7-1-12 0-5 0-9-1-14-1-5-2-9-3-14-1-4-2-7-3-9h-120c0-17 4-28 12-34 8-7 20-10 37-10 16 0 27 1 35 1s16 1 22 1c6 0 11-2 13-5s4-7 4-12v-30z m-63 135c0 19-2 33-6 40-3 8-11 12-21 12-13 0-21-4-26-12-4-8-6-22-7-40h60z m191-69c0-7 1-11 3-14 2-3 6-4 12-5 6 0 10-2 12-5 1-3 2-7 2-13v-36c-9-2-16-4-22-5s-14-2-23-2c-10 0-18 1-26 3-8 3-15 7-20 13-6 6-10 14-13 24-3 10-5 23-5 38v268h62c12 0 18-5 18-16v-250z m-1875 393c-168 0-305-137-305-305 0-168 137-305 305-305 169 0 305 137 305 305 0 168-136 305-305 305l0 0z m190-407l-88-88-102 102-102-102-88 88 102 102-102 102 88 88 102-102 102 102 88-88-102-102 102-102z m0 0" horiz-adv-x="3524" />
<glyph glyph-name="clear" unicode="&#xe804;" d="m557 702h-114v38c0 22-17 39-38 39h-114c-22 0-39-17-39-39v-38h-114c-21 0-38-17-38-38v-38c0-21 17-38 38-38h419c21 0 38 17 38 38v38c0 21-17 38-38 38l0 0z m-152 0h-114v20c0 10 8 18 19 18h76c10 0 19-8 19-18v-20z m-267-457c0-42 34-76 76-76h267c42 0 76 34 76 76v305h-419v-305z m286 248c0 10 8 19 19 19s19-9 19-19v-229c0-10-9-19-19-19s-19 9-19 19v229z m-95 0c0 10 8 19 19 19 10 0 19-9 19-19v-229c0-10-9-19-19-19-11 0-19 9-19 19v229z m-96 0c0 10 9 19 19 19 11 0 19-9 19-19v-229c0-10-8-19-19-19-10 0-19 9-19 19v229z m0 0l-110-391c6 0 12-1 19-2 6-1 11-3 15-5 4-1 6-3 7-6s2-5 2-9v-21c-6 0-12 1-17 1-6 0-12 1-19 1-6 0-11-1-16-3s-7-5-9-10c-3-4-4-10-5-18-1-8-1-18-1-30 0-12 0-22 1-30 1-8 3-15 5-20 2-4 5-8 9-10 4-1 8-2 13-2 7 0 12 0 18 0 5 1 9 1 12 1 7 0 11-4 11-11v-23c-7-3-14-5-22-6-7-2-17-3-29-3-10 0-20 2-28 5s-16 8-22 16c-7 8-11 19-14 32-4 13-5 29-5 50 0 19 1 36 4 49s7 23 13 31 14 14 23 18c10 3 21 5 35 5z m7-548c0-4 1-7 2-8 1-2 3-3 7-3 4-1 6-2 7-3s1-5 1-8v-21c-5-2-9-3-13-4-3-1-8-1-14-1s-11 1-15 2c-5 2-9 4-12 8-4 3-6 8-8 14s-3 14-3 23v161h37c7 0 11-3 11-10v-150z m153-39c-5-3-12-5-20-7s-20-3-32-3c-12 0-21 2-30 4-8 3-15 8-20 14-5 6-9 14-12 24-3 10-4 22-4 36 0 28 5 47 16 60 10 12 26 18 48 18 12 0 21-2 29-5 7-3 13-8 17-13 4-6 7-13 9-20 1-8 2-17 2-26 0-2 0-4 0-7s-1-5-1-8c-1-3-1-6-2-8 0-3-1-5-2-6h-72c0-10 3-17 7-21 5-3 12-5 23-5 9 0 16 0 21 0 5 0 9 1 13 1 3 0 6-1 8-3 1-2 2-4 2-8v-17z m-38 80c0 12-1 20-3 25-3 4-7 7-13 7-8 0-13-3-15-8-3-4-4-12-5-24h36z m102-88c-13 0-24 4-31 12-8 9-11 20-11 35 0 11 1 19 5 25 3 6 8 11 13 14s12 5 19 6c7 1 14 2 22 2h17v8c0 6-2 10-6 12-4 1-11 2-19 2-8 0-15-1-21-1s-10 0-12 0c-4 0-6 1-8 2-1 2-2 5-2 7v20c5 2 12 4 21 7 9 2 20 3 31 3 22 0 38-5 48-14 10-10 15-23 15-40v-98h-28c-2 0-4 0-5 0-1 1-3 1-4 2-1 1-1 2-2 4-1 1-2 3-2 5l-2 5c-4-4-9-8-15-12s-14-6-23-6z m34 66h-18c-6 0-11-2-13-4-3-3-4-7-4-12 0-6 1-10 4-12 3-2 7-3 12-3 8 0 14 2 19 5v26z m153 85c7 0 11-3 11-10v-33c-1 0-2 1-4 1-1 0-2 0-4 0-6 0-12-1-18-2s-11-3-14-6v-99h-38c-7 0-10 3-10 10v138h27c4 0 7 0 9-2 2-1 3-4 5-9l2-8c4 6 9 11 15 15 6 3 12 5 19 5z" horiz-adv-x="690" />
<glyph glyph-name="confirm" unicode="&#xe805;" d="m3532 153c0-149-121-270-270-270h-2934c-149 0-270 121-270 270v381c0 149 121 270 270 270h2934c149 0 270-121 270-270v-381z m-2561 288c-5 13 134 138 53 239-19 24-84-113-176-175-51-34-169-107-169-147v-261c0-48 187-100 330-100 52 0 127 327 127 379 0 52-160 51-165 65l0 0z m-330-4c-25 0-114-15-114-119v-185c0-103 89-115 114-115s-38 22-38 86v243c0 67 63 90 38 90l0 0z m0 0l885 32c11 0 21-1 32-3 11-2 19-4 25-8 6-2 10-6 12-10s3-9 3-15v-35c-10 1-19 1-29 2-9 0-19 0-30 0-11 0-20-1-27-4-7-3-12-8-16-16-4-7-7-18-8-31-2-13-2-29-2-49 0-21 0-38 2-51 2-13 4-24 8-32 4-8 9-14 15-17s14-4 23-4c10 0 20 0 29 0s15 1 21 1c11 0 17-5 17-17v-39c-11-4-23-8-36-10-12-3-29-5-48-5-18 0-34 3-48 8-14 6-27 15-37 28-10 13-18 30-23 52-5 22-8 50-8 83 0 33 2 60 7 82s12 39 22 53c10 13 23 23 38 28 16 6 35 9 58 9z m1098-311c-20 0-36 3-50 8-14 5-25 12-34 23-9 10-15 24-19 40-4 17-6 36-6 59 0 23 2 43 6 59 4 17 10 30 19 40 9 11 20 19 34 23 14 5 30 7 50 7 19 0 36-2 49-7 14-4 25-12 34-23 9-10 15-23 19-40s6-36 6-59c0-23-2-43-6-59-4-16-10-30-19-40-9-11-20-18-34-23-13-5-30-8-49-8z m28 130c0 15-1 27-2 36 0 9-2 16-4 21s-5 9-9 10c-3 2-8 3-13 3-6 0-11-1-14-3-4-1-7-5-9-10s-4-12-4-21c-1-9-2-21-2-36 0-16 1-28 2-37s2-16 4-21 5-8 9-10c3-2 8-2 14-2 5 0 10 0 13 2 4 2 7 5 9 10s4 12 4 21 2 21 2 37z m203-123h-61c-12 0-18 5-18 16v231h46c7 0 12-1 15-4s5-7 7-15l3-9c11 12 22 21 33 26 11 5 23 8 37 8 45 0 68-28 68-84v-169h-62c-12 0-17 5-17 16v145c0 8-2 14-5 18-3 4-9 6-18 6-5 0-10-1-15-2-5-2-9-4-13-8v-175z m409 0h-62c-12 0-17 5-17 16v169h-62v-185h-62c-12 0-17 5-17 16v169h-10c-12 0-18 6-18 17v45h28v13c0 17 1 31 5 42 3 11 8 20 14 27 6 6 14 11 22 14 9 3 19 4 29 4 7 0 13-1 19-2 5-1 11-2 16-5 9-4 13-11 13-22v-33c-4 0-7 0-10 0s-5 0-7 0c-11 0-17-2-19-7-2-5-3-12-3-21v-10h123c12 0 18-6 18-17v-230z m-39 271c-17 0-28 3-35 8-6 6-10 15-10 28s4 23 10 28c7 6 18 8 35 8s27-2 34-8c6-5 10-15 10-28s-4-22-10-28c-7-5-18-8-34-8z m217-23c12 0 18-5 18-16v-55c-2 0-4 0-6 0-2 0-4 0-7 0-10 0-20-1-30-2-10-2-18-5-24-11v-164h-62c-12 0-18 5-18 16v231h46c7 0 12-1 15-4 2-2 5-7 8-15l3-13c7 10 15 19 25 24 10 6 21 9 32 9z m260-248h-62c-12 0-18 5-18 16v145c0 8-1 14-4 18-3 4-9 6-17 6-5 0-9-1-14-2-4-2-9-4-12-7v-176h-62c-12 0-18 5-18 16v231h46c7 0 12-1 15-4s5-7 8-15l2-9c12 12 22 21 33 26 10 5 23 8 37 8 13 0 24-3 34-8 10-6 17-14 23-26 9 11 19 19 31 25s24 9 38 9c45 0 67-28 67-84v-169h-62c-12 0-18 5-18 16v145c0 8-1 14-4 18-3 4-9 6-17 6-5 0-9-1-14-2-4-2-9-4-12-7v-176z" horiz-adv-x="3524" />
<glyph glyph-name="edit" unicode="&#xe806;" d="m707 806l-95-92 269-269 95 92c23 76 2 159-54 215-56 57-139 77-215 54l0 0z m0 0l134-408-271 268-357-354-160-429 430 161 358 354z m-510-954h808v70h-556l-252-70z m0 0" horiz-adv-x="1040" />
<glyph glyph-name="expand" unicode="&#xe807;" d="m859 235v-201c0-36-28-65-64-65h-644c-35 0-64 29-64 65v643c0 36 29 65 64 65h214m514-452c24 0 43 19 43 43v433c0 23-19 43-43 43h-433c-24 0-43-19-43-43l145-152-289-314 167-167 295 311 158-154z" horiz-adv-x="955" />
<glyph glyph-name="face1_white" unicode="&#xe808;" d="m849 679c-188 188-493 188-681 0-188-188-188-493 0-681 188-188 493-188 681 0 188 188 188 493 0 681l0 0z m-53-628c-158-159-417-159-575 0-159 158-159 417 0 576 158 158 417 158 576 0 158-159 158-418-1-576l0 0z m-70 97c6-13 0-30-14-35-14-6-30 0-36 14-26 60-88 100-158 100-71 0-134-40-159-100-4-11-14-17-25-17-3 0-7 1-10 2-14 6-21 22-15 36 34 81 116 133 209 133 92 0 173-52 208-133l0 0z m-397 321c0 31 25 56 56 56 31 0 57-25 57-56 0-31-26-56-57-56-31 0-56 25-56 56l0 0z m255 0c0 31 25 56 56 56 32 0 57-25 57-56 0-31-25-56-57-56-31 0-56 25-56 56l0 0z m0 0" horiz-adv-x="1000" />
<glyph glyph-name="face1_yellow" unicode="&#xe809;" d="m849 679c-188 188-493 188-681 0-188-188-188-493 0-681 188-188 493-188 681 0 188 188 188 493 0 681l0 0z m-53-628c-158-159-417-159-575 0-159 158-159 417 0 576 158 158 417 158 576 0 158-159 158-418-1-576l0 0z m-70 97c6-13 0-30-14-35-14-6-30 0-36 14-26 60-88 100-158 100-71 0-134-40-159-100-4-11-14-17-25-17-3 0-7 1-10 2-14 6-21 22-15 36 34 81 116 133 209 133 92 0 173-52 208-133l0 0z m-397 321c0 31 25 56 56 56 31 0 57-25 57-56 0-31-26-56-57-56-31 0-56 25-56 56l0 0z m255 0c0 31 25 56 56 56 32 0 57-25 57-56 0-31-25-56-57-56-31 0-56 25-56 56l0 0z m0 0" horiz-adv-x="1000" />
<glyph glyph-name="checklist" unicode="&#xe80a;" d="m182 407c13 0 25-1 38-3s22-5 30-9c6-3 11-7 13-12 2-4 3-10 3-17v-42c-11 1-22 2-33 2-11 1-23 1-36 1-12 0-23-2-31-5-7-4-14-10-18-18-5-9-8-21-10-36-2-15-2-35-2-58 0-24 1-44 2-59s5-28 10-38 10-16 17-19 16-6 27-6c12 0 23 1 33 1s19 1 25 1c13 0 20-6 20-19v-46c-13-5-26-9-41-13-15-3-34-4-57-4-20 0-39 3-56 9-16 6-31 17-43 32s-20 35-27 61-9 58-9 97c0 38 2 70 8 95 5 26 14 46 25 62 12 15 27 26 46 33 18 7 40 10 66 10z m308-392c-14 0-21 6-21 19v169c0 9-2 16-6 21-3 5-10 7-20 7-6 0-11-1-17-3s-11-4-15-8v-205h-73c-13 0-20 6-20 19v380h72c14 0 21-7 21-20v-117c20 22 44 33 71 33 53 0 80-33 80-98v-197h-72z m352 11c-9-4-23-8-39-12-17-4-38-6-63-6-22 0-41 2-57 8-16 6-29 15-39 27s-19 28-24 47c-5 19-7 42-7 69 0 54 10 92 30 116 20 23 52 35 95 35 22 0 41-3 55-9s26-15 34-26 13-24 16-39c3-15 5-31 5-49 0-4 0-8-1-14 0-5-1-11-2-16-1-6-2-11-3-16-1-5-2-9-3-12h-140c0-18 4-32 14-39 9-7 23-11 43-11 18 0 32 0 41 1 9 0 18 0 25 0 7 0 12-1 16-5s4-8 4-14v-35z m-73 157c0 23-2 39-7 48-5 8-13 13-25 13-15 0-25-5-30-14-5-9-8-25-8-47h70z m325-157c-10-5-21-9-33-13-12-3-27-5-46-5-44 0-75 12-94 36-19 23-28 62-28 114 0 53 9 91 28 116s48 36 90 36c13 0 26-1 38-3 11-3 21-6 28-9 7-4 11-7 14-12 2-4 3-10 3-18v-36c-11 1-22 2-34 3-11 0-19 1-24 1-11 0-19-2-25-4s-12-7-15-12-5-14-7-23c-1-10-1-22-1-36 0-15 0-28 1-39 2-10 4-18 7-23 2-6 7-10 12-12 6-3 13-4 21-4 3 0 6 0 9 1 4 0 8 0 12 0 4 0 7 0 11 0 3 0 6 0 8 0 8 0 15-1 19-5s6-8 6-16v-37z m48 388h72c14 0 20-7 20-20v-203c17 21 30 41 40 60 9 19 17 37 24 52h72c4 0 8-1 11-4 4-2 5-6 5-12 0-3-1-7-2-11-2-5-4-10-8-16-8-13-17-28-29-45-11-16-23-32-35-46 15-18 31-39 46-65 15-25 29-55 41-89h-82c-8 0-14 2-18 6s-7 10-10 16c-4 10-8 19-11 28-4 9-8 17-13 26s-9 17-14 25c-5 9-10 18-17 28v-129h-72c-13 0-20 6-20 19v380z m375-311c0-8 1-13 3-16 2-3 7-5 15-6 7-1 11-3 13-6 1-3 2-9 2-16v-41c-10-3-18-5-25-6-7-2-16-3-27-3s-21 2-30 5c-9 2-17 7-24 14s-11 16-15 28-5 27-5 44v314h72c14 0 21-7 21-20v-291z m120 229c-19 0-32 3-40 9s-12 18-12 33c0 15 4 26 12 32s21 10 40 10c19 0 33-3 41-10s11-17 11-32c0-15-3-26-11-33s-22-9-41-9z m47-317h-72c-14 0-21 6-21 19v269h72c14 0 21-6 21-19v-269z m50 70c16-1 30-2 45-3 14-1 27-1 38-1 16 0 28 1 34 4 6 3 9 9 9 17 0 4-1 7-2 9-1 2-3 4-6 6-3 2-7 4-12 5-5 2-12 3-20 5-15 4-29 8-40 12-11 4-20 10-28 16-7 6-13 14-16 24-4 10-5 22-5 38 0 19 2 35 7 47 6 12 13 21 22 28 10 7 21 12 34 15 13 2 27 4 43 4 22 0 39-2 52-5 13-3 23-6 29-9 7-3 12-6 14-10s4-9 4-16v-38c-24 2-42 3-54 3-12 1-20 1-26 1-13 0-23-1-29-3-6-2-10-7-10-15 0-7 3-12 9-15s16-6 29-9c16-4 29-8 41-12 12-4 21-10 28-16 8-7 13-15 17-25 4-9 6-22 6-37 0-19-3-35-8-47-6-13-13-23-23-30-10-8-21-13-34-16-14-3-28-4-44-4-19 0-36 1-52 4-16 3-27 6-35 9-7 3-11 7-13 11-3 4-4 9-4 16v37z m425-67c-11-3-21-5-30-7-9-1-19-2-30-2-15 0-28 1-40 4-11 3-21 9-30 16-8 8-14 18-19 31s-7 29-7 48v124h-11c-13 0-20 6-20 19v52h35l4 70h65c13 0 20-6 20-19v-51h42c14 0 21-6 21-19v-52h-63v-122c0-20 9-29 26-29h16c14 0 21-7 21-20v-43z m541 788h-5l-254-265v-660h768v925h-509z m423-838l-125 327-266 432 1-209-201-1 200 210z m35-38h-660v536l288 2-1 296h373v-834z m-283 784h192v-203h-192v203z m192-266h-192v-203h192v203z m-48-154h-96v106h96v-106z m48-111h-192v-203h192v203z m-69-127l21-28h-96v106h96v-106z" horiz-adv-x="3222" />
<glyph glyph-name="face2_white" unicode="&#xe80b;" d="m850 681c-189 188-496 188-684 0-189-189-189-496 0-685 188-188 495-188 684 0 189 189 189 496 0 685l0 0z m-53-632c-159-159-419-159-578 0-160 160-160 419 0 579 159 159 419 159 578 0 160-160 160-419 0-579l0 0z m-470 420c0 32 26 57 57 57 31 0 57-25 57-57 0-31-26-56-57-56-31 0-57 25-57 56l0 0z m257 0c0 32 25 57 56 57 32 0 57-25 57-57 0-31-25-56-57-56-31 0-56 25-56 56l0 0z m133-231c-35-81-117-134-209-134-93 0-176 53-210 134-6 14 1 30 15 36 3 2 7 2 10 2 11 0 21-6 26-17 25-60 88-100 159-100 71 0 133 40 159 101 6 13 22 20 36 14 14-6 21-22 14-36l0 0z m0 0" horiz-adv-x="1000" />
<glyph glyph-name="face2_yellow" unicode="&#xe80c;" d="m850 681c-189 188-496 188-684 0-189-189-189-496 0-685 188-188 495-188 684 0 189 189 189 496 0 685l0 0z m-53-632c-159-159-419-159-578 0-160 160-160 419 0 579 159 159 419 159 578 0 160-160 160-419 0-579l0 0z m-470 420c0 32 26 57 57 57 31 0 57-25 57-57 0-31-26-56-57-56-31 0-57 25-57 56l0 0z m257 0c0 32 25 57 56 57 32 0 57-25 57-57 0-31-25-56-57-56-31 0-56 25-56 56l0 0z m133-231c-35-81-117-134-209-134-93 0-176 53-210 134-6 14 1 30 15 36 3 2 7 2 10 2 11 0 21-6 26-17 25-60 88-100 159-100 71 0 133 40 159 101 6 13 22 20 36 14 14-6 21-22 14-36l0 0z m0 0" horiz-adv-x="1000" />
<glyph glyph-name="face3_white" unicode="&#xe80d;" d="m848 682c-187 187-492 187-679 0-187-188-187-492 0-679 187-188 492-188 679 0 187 187 187 491 0 679l0 0z m-52-627c-159-158-416-158-575 0-158 158-158 416 0 574 159 159 416 159 575 0 158-158 158-416 0-574l0 0z m-57 214c3-3 3-8 1-12-38-90-129-147-231-147-104 0-195 58-233 148-1 4-1 8 2 12 2 4 6 6 10 6l440-1c5 0 9-2 11-6l0 0z m-403 170c-7 9-11 21-11 33 0 31 25 56 56 56s56-25 56-56c0-12-3-23-10-32-10 14-26 23-45 23-19 0-36-9-46-24l0 0z m254 0c-6 9-10 21-10 33 0 31 25 56 56 56 31 0 56-25 56-56 0-12-4-23-10-32-11 14-27 23-46 23-19 0-36-9-46-24l0 0z m0 0" horiz-adv-x="1000" />
<glyph glyph-name="face3_yellow" unicode="&#xe80e;" d="m848 682c-187 187-492 187-679 0-187-188-187-492 0-679 187-188 492-188 679 0 187 187 187 491 0 679l0 0z m-52-627c-159-158-416-158-575 0-158 158-158 416 0 574 159 159 416 159 575 0 158-158 158-416 0-574l0 0z m-57 214c3-3 3-8 1-12-38-90-129-147-231-147-104 0-195 58-233 148-1 4-1 8 2 12 2 4 6 6 10 6l440-1c5 0 9-2 11-6l0 0z m-403 170c-7 9-11 21-11 33 0 31 25 56 56 56s56-25 56-56c0-12-3-23-10-32-10 14-26 23-45 23-19 0-36-9-46-24l0 0z m254 0c-6 9-10 21-10 33 0 31 25 56 56 56 31 0 56-25 56-56 0-12-4-23-10-32-11 14-27 23-46 23-19 0-36-9-46-24l0 0z m0 0" horiz-adv-x="1000" />
<glyph glyph-name="face4_white" unicode="&#xe80f;" d="m463 472c2 3 4 8 2 11-1 4-4 7-8 8l-56 8-25 50c-2 4-5 6-9 6-4 0-8-2-10-6l-25-50-55-8c-4-1-8-4-9-8-1-3 0-8 3-11l40-39-10-55c0-4 1-8 5-11 3-2 7-2 11 0l50 26 49-26c2-1 4-2 5-2 2 0 5 1 6 2 4 3 5 7 5 11l-10 55 41 39 0 0z m0 0l269 0c3 3 4 8 2 11-1 4-4 7-8 8l-56 8-25 50c-1 4-5 6-9 6-4 0-8-2-10-6l-24-50-56-8c-4-1-7-4-9-8-1-3 0-8 3-11l40-39-9-55c-1-4 1-8 4-11 3-2 8-2 11 0l50 26 50-26c1-1 3-2 5-2 2 0 4 1 6 2 3 3 5 7 4 11l-9 55 40 39 0 0z m269 0l112 210c-187 187-492 187-679 0-188-188-188-492 0-679 187-188 492-188 679 0 187 187 187 491 0 679l0 0z m59-417c-158-158-416-158-574 0-158 158-158 416 0 574 158 159 416 159 574 0 159-158 159-416 0-574l0 0z m-56 214c3-3 3-8 1-12-39-90-129-147-231-147-104 0-195 58-233 148-1 4-1 8 1 12 3 4 7 6 11 6l440-1c5 0 9-2 11-6l0 0z m-149 170" horiz-adv-x="1000" />
<glyph glyph-name="face4_yellow" unicode="&#xe810;" d="m463 472c2 3 4 8 2 11-1 4-4 7-8 8l-56 8-25 50c-2 4-5 6-9 6-4 0-8-2-10-6l-25-50-55-8c-4-1-8-4-9-8-1-3 0-8 3-11l40-39-10-55c0-4 1-8 5-11 3-2 7-2 11 0l50 26 49-26c2-1 4-2 5-2 2 0 5 1 6 2 4 3 5 7 5 11l-10 55 41 39 0 0z m0 0l269 0c3 3 4 8 2 11-1 4-4 7-8 8l-56 8-25 50c-1 4-5 6-9 6-4 0-8-2-10-6l-24-50-56-8c-4-1-7-4-9-8-1-3 0-8 3-11l40-39-9-55c-1-4 1-8 4-11 3-2 8-2 11 0l50 26 50-26c1-1 3-2 5-2 2 0 4 1 6 2 3 3 5 7 4 11l-9 55 40 39 0 0z m269 0l112 210c-187 187-492 187-679 0-188-188-188-492 0-679 187-188 492-188 679 0 187 187 187 491 0 679l0 0z m59-417c-158-158-416-158-574 0-158 158-158 416 0 574 158 159 416 159 574 0 159-158 159-416 0-574l0 0z m-56 214c3-3 3-8 1-12-39-90-129-147-231-147-104 0-195 58-233 148-1 4-1 8 1 12 3 4 7 6 11 6l440-1c5 0 9-2 11-6l0 0z m-149 170" horiz-adv-x="1000" />
<glyph glyph-name="fav" unicode="&#xe811;" d="m661 555l-131-128 31-180c2-13-3-26-14-34-6-4-13-6-20-6-5 0-11 1-16 4l-162 85-162-85c-12-7-26-6-36 2-11 8-16 21-14 34l31 180-131 128c-10 9-13 23-9 35 4 13 15 22 28 24l181 26 81 164c6 12 18 20 31 20 13 0 25-8 31-20l81-164 181-26c13-2 24-11 28-24 4-12 1-26-9-35l0 0z m0 0l-391-534h-67v-40h48c7 0 11-3 11-10v-29h-59v-82h-40c-7 0-11 4-11 11v190h107c7 0 11-3 11-10v-30z m-338-696c-13 0-24 4-32 12-7 9-11 20-11 36 0 10 2 18 5 25 4 6 8 11 14 14 5 3 12 5 19 6s15 1 22 1h18v9c0 6-2 10-6 12-5 1-11 2-20 2-8 0-15 0-21-1-7 0-11 0-12 0-4 0-7 1-8 3-2 1-3 4-3 6v20c6 3 13 5 22 7s20 3 31 3c23 0 39-4 49-14 10-9 15-23 15-40v-100h-28c-2 0-4 1-5 1-2 0-3 1-4 2-1 1-2 2-3 3s-1 4-2 6l-2 5c-3-5-8-9-15-12s-13-6-23-6z m35 66h-19c-6 0-11-1-13-4-3-3-4-7-4-12 0-6 1-10 4-12 3-2 7-3 13-3 7 0 14 2 19 6v25z m117-65c-4 0-7 1-9 3-2 2-3 4-4 6-10 24-18 47-24 70s-10 48-13 72h40c3 0 6-1 7-3 2-2 3-4 4-8 0-6 1-14 2-23s2-17 4-26c1-9 3-18 4-27 2-9 4-17 6-23 3 6 5 15 7 24 1 10 3 20 5 31 1 10 3 20 4 30 1 10 2 18 2 25h37c3 0 5-1 7-2 1-2 2-4 3-8 0-2-1-4-1-6 0-3-1-6-2-10-1-10-3-20-5-30-2-9-5-19-8-30-3-10-6-20-10-31-4-11-8-22-14-34h-42z" horiz-adv-x="684" />
<glyph glyph-name="match" unicode="&#xe812;" d="m506 345l-2-2c-65-78-152-121-244-121-93 0-180 43-245 121l-2 2 1 3c12 83 55 149 120 186l5 3 4-4c31-32 72-50 117-50 44 0 85 18 116 50l4 4 5-3c65-37 108-103 121-186l0-3z m-246 171c80 0 146 66 146 147 0 81-66 146-146 146-81 0-147-65-147-146s66-147 147-147l0 0z m0 0l906-176-2-2c-65-78-152-121-244-121-93 0-180 43-245 121l-2 2 1 3c12 83 55 149 120 186l5 3 4-4c31-32 72-50 117-50 44 0 86 18 116 50l4 4 5-3c65-37 108-103 121-186l0-3z m660-5c80 0 146 66 146 147 0 81-66 146-146 146-81 0-147-65-147-146s66-147 147-147l0 0z m0 0l-541-624c0 9 0 20 0 32 0 12 0 24-1 37 0 13 0 26 0 38 0 13 0 24-1 34l-25-101h-29c-5 0-7 1-9 3-1 2-2 5-3 7l-22 91c0-11-1-22-1-36 0-13 0-27 0-41 0-13 0-27 0-40s0-24 0-34h-37c-7 0-11 3-11 10 0 31 1 63 3 95 1 31 3 64 5 98h53c2 0 5 0 7-2s4-4 5-8l21-91 25 101h49c4 0 7-1 8-3s3-4 3-7c2-28 4-58 5-90 2-32 3-67 3-104h-38c-7 1-10 4-10 11z m-423-636c-14 0-25 4-33 12s-11 21-11 36c0 11 2 19 5 26s8 11 14 14c6 3 12 6 19 7s15 1 23 1h18v9c0 6-2 10-7 11-4 2-11 3-20 3-8 0-15-1-21-1s-11-1-12-1c-4 0-7 1-8 3-2 2-3 5-3 7v21c6 2 13 4 22 7 10 2 20 3 32 3 23 0 40-5 50-15 10-9 15-23 15-41v-100h-29c-2 0-4 0-5 0-2 0-3 1-4 2-1 1-2 2-3 3 0 2-1 4-2 6l-2 5c-4-4-9-8-15-12-6-4-14-6-23-6z m35 67h-19c-7 0-11-1-14-4-3-3-4-7-4-12 0-6 2-10 4-12 3-2 8-4 13-4 8 0 14 2 20 6v26z m168-64c-6-1-11-3-16-4-5 0-10-1-16-1-8 0-15 1-21 3-6 1-11 4-16 8-4 4-7 9-10 16s-3 16-3 26v65h-6c-7 0-11 4-11 11v27h18l3 37h34c7 0 11-3 11-10v-27h22c7 0 11-3 11-10v-28h-33v-64c0-11 4-16 14-16h8c7 0 11-3 11-10v-23z m127 4c-5-2-10-4-17-6-6-2-14-3-25-3-23 0-39 6-49 19-10 12-15 33-15 60 0 28 5 49 15 62 9 12 25 19 47 19 8 0 14-1 20-2 7-1 12-3 16-5 3-1 5-4 7-6 1-2 1-5 1-9v-19c-5 0-11 1-17 1s-11 0-13 0c-6 0-10 0-14-2s-6-3-7-6c-2-3-3-7-4-12 0-5-1-11-1-19 0-8 1-15 1-21 1-5 2-9 3-12s4-5 7-6c3-2 7-2 11-2 2 0 3 0 5 0s4 0 6 0 4 0 6 0c2 0 3 0 4 0 5 0 8-1 10-2 2-2 3-5 3-9v-20z m117-5c-8 0-11 3-11 10v89c0 5-1 9-3 11-2 3-6 4-11 4-3 0-6-1-9-2-3 0-6-2-8-4v-108h-38c-8 0-11 3-11 10v201h38c7 0 11-4 11-10v-63c10 12 23 18 38 18 28 0 42-17 42-52v-104h-38z" horiz-adv-x="1176" />
<glyph glyph-name="plus+" unicode="&#xe813;" d="m967 346c0-262-213-474-475-474s-474 212-474 474c0 262 213 474 474 474s475-212 475-474z m-475 390c-215 0-389-175-389-390 0-215 174-390 389-390 216 0 390 175 390 390 0 215-174 390-390 390z m91-318h124c31 0 46-14 46-43v-127h-170v-188h-139c-29 0-43 15-43 46v142h-125c-30 0-45 15-45 44v126h170v189h139c29 0 43-15 43-46v-143z" horiz-adv-x="966" />
<glyph glyph-name="profile" unicode="&#xe814;" d="m392 831c-206 0-373-167-373-373 0-90 31-172 84-236 8 65 73 120 165 146 33-31 76-50 124-50 46 0 88 18 121 48 92-29 156-87 158-155 58 66 93 152 93 247 0 206-167 373-372 373l0 0z m0-469c-24 0-47 7-67 18-48 27-81 83-81 148 0 91 66 165 148 165 81 0 147-74 147-165 0-66-34-122-84-149-19-11-41-17-63-17l0 0z m0 0l-274-168c0 13 4 23 11 30 8 7 20 10 36 10 6 0 12 0 18-1 5-1 10-2 13-3 3-1 4-2 4-3 1-1 1-3 1-4v-10c-5 1-10 2-16 2-5 0-11 1-17 1-5 0-10-1-14-2-3-1-6-2-8-4-3-1-4-3-5-6-1-2-1-5-1-9 0-4 0-7 1-9 1-3 3-5 5-7 2-2 5-3 9-5 4-1 9-3 14-5 6-2 11-4 15-6 5-2 9-5 12-8 4-3 6-7 8-12 2-4 2-10 2-17 0-15-4-26-12-33-8-6-20-10-35-10-7 0-14 1-20 2-6 1-11 2-15 3-2 1-3 2-4 3 0 1-1 2-1 4v10c5 0 11-1 17-2s12-1 19-1c6 0 11 1 15 2 3 1 6 2 9 4 2 2 3 5 4 7 1 3 2 6 2 10 0 4-1 7-2 10-1 2-2 4-5 6-2 2-5 4-9 5-3 2-8 3-14 5-6 3-11 5-15 7-5 2-9 5-12 8-3 3-6 7-7 12-2 4-3 9-3 16z m-145-230c1-6 1-11 2-15 1-4 3-7 5-9 3-3 6-5 10-6 4-1 9-2 15-2 6 0 11 1 15 1 5 1 8 1 9 1 4 0 5-1 5-5v-8c-3-2-8-3-14-4-5-1-12-2-20-2-8 0-15 1-21 3-6 2-11 5-15 10-3 4-6 10-8 17s-3 16-3 26c0 10 1 19 3 26s5 13 8 18c4 4 9 8 14 10 6 2 12 3 19 3 9 0 15-1 20-4 6-2 10-5 13-9 3-4 5-9 6-14 1-5 2-11 2-17 0-4-1-8-1-12 0-4-1-6-2-8h-62z m45 15c0 1 0 2 0 3 0 0 0 1 0 2 0 10-1 16-4 21-3 4-8 7-16 7-5 0-9-1-12-3s-5-3-7-6c-2-3-3-6-4-11-1-4-1-8-2-13h45z m96-61c-3-1-6-1-9-2-3 0-6 0-9 0-10 0-18 2-22 6-5 5-7 12-7 22v64h-8c-3 0-5 2-5 5v12h13l1 28h15c3 0 5-1 5-5v-23h21c1 0 3 0 4-1s1-2 1-4v-12h-26v-63c0-4 1-7 2-9 1-2 4-3 8-3 2 0 4 0 6 0 1 0 3 0 4 0 4 0 6-2 6-5v-10z m139 4c-1 7-3 13-4 19-1 6-2 12-3 17h-47c-2-6-3-13-4-20-1-7-2-14-3-20h-16c-4 0-5 1-5 5 0 4 1 8 2 12 3 14 5 27 8 40 4 12 7 24 10 35 3 11 7 21 10 30 3 9 6 17 9 24h22c1 0 2 0 3-1 1-1 2-2 2-3 3-7 7-16 10-26 4-10 7-21 11-33s6-26 9-40c4-14 6-28 9-43h-18c-3 0-5 1-5 4z m-31 124c-3-10-6-21-10-32-4-12-7-25-10-38h41c-3 13-6 26-10 38-3 11-7 22-11 32z m69-111c4 0 9-1 15-1 5-1 11-1 16-1 9 0 16 1 19 3 3 3 5 7 5 12 0 2-1 4-1 6-1 2-2 3-4 4-2 1-4 2-7 3-3 1-6 2-11 4-5 1-9 2-13 4-5 1-8 3-11 5-3 2-5 5-7 9-2 3-2 7-2 13 0 11 3 20 9 24 7 5 16 8 28 8 3 0 5 0 8-1 3 0 6 0 8 0 3-1 6-1 8-2s4-1 6-1c1-1 2-2 3-3 1-1 1-2 1-4v-9c-6 1-12 1-17 2-4 0-9 0-12 0-8 0-14-1-17-3s-5-5-5-10c0-3 1-5 1-6 1-2 3-3 4-4 2-2 5-3 8-3 3-1 6-2 10-3 5-2 9-3 13-4s8-3 11-6c3-2 5-5 7-8 2-4 2-8 2-14 0-6-1-11-2-16s-5-8-9-10c-3-3-7-5-12-6-5-1-10-2-16-2-3 0-6 0-9 1-3 0-6 0-9 1-3 0-5 0-8 1-2 0-5 1-6 2-2 0-3 1-3 2-1 1-1 3-1 4v9z m-445-217c-5 0-10 1-14 2-3 2-7 4-11 6v-47h-31c-6 0-9 2-9 8v76c0 8 0 15 1 24 0 8 1 16 2 25h-4c-5 0-7 2-7 7v20c2 0 4 1 8 1 4 1 8 2 12 2 5 1 10 1 16 2 5 0 11 0 17 0 11 0 20-1 28-3 8-2 14-5 19-10 5-5 8-11 10-19 2-8 3-17 3-29 0-12-1-23-3-31-2-8-5-15-8-20-4-5-8-9-13-11-5-2-11-3-16-3z m-15 30c3 0 6 0 8 1 2 1 3 3 4 6 2 2 2 6 3 10 0 5 0 11 0 18 0 6 0 11 0 15-1 3-1 7-3 9s-3 4-5 6c-3 1-6 1-10 1-2 0-3 0-4 0-1 0-2 0-3 0v-64c3-1 6-2 10-2z m141 96c7 0 10-3 10-9v-27c-1 0-2 0-3 0s-2 0-4 0c-5 0-10 0-15-1-5-1-9-3-12-5v-83h-31c-6 0-9 3-9 9v115h23c4 0 6-1 7-2 2-1 3-4 4-8l2-6c4 5 8 9 13 12 5 3 10 5 15 5z m76-128c-10 0-18 1-25 4s-12 6-17 11c-4 6-7 12-9 20-2 9-3 18-3 30 0 11 1 21 3 29 2 9 5 15 9 21 5 5 10 9 17 11 7 2 15 4 25 4 10 0 18-2 25-4 7-2 13-6 17-11 4-6 7-12 9-21 2-8 3-18 3-29 0-12-1-21-3-30-2-8-5-14-9-20-4-5-10-9-17-11s-15-4-25-4z m14 65c0 7 0 14 0 18-1 5-2 8-3 10-1 3-2 5-4 5-2 1-4 2-7 2-3 0-5-1-7-2-2 0-3-2-4-5-1-2-2-5-2-10-1-5-1-11-1-18 0-8 0-14 1-19 0-4 1-8 2-10 1-3 2-4 4-5 2-1 4-1 7-1 3 0 5 0 7 1 2 1 3 2 4 5 1 2 2 6 3 10 0 5 0 11 0 19z m176-62h-31c-6 0-9 3-9 9v84h-31v-93h-31c-5 0-8 3-8 9v84h-5c-6 0-9 3-9 8v23h14v6c0 9 0 16 2 21s4 10 7 14 7 5 11 7c5 1 10 2 15 2 3 0 6 0 9-1 3 0 6-1 8-3 5-2 7-5 7-11v-16c-2 0-4 0-5 0-1 0-3 0-4 0-5 0-8-1-9-4-1-2-2-6-2-10v-5h62c6 0 9-3 9-8v-116z m-20 136c-8 0-14 1-17 4-3 3-5 8-5 14s2 11 5 14c3 3 9 4 17 4 8 0 14-1 17-4 4-3 5-7 5-14s-1-11-5-14c-3-3-9-4-17-4z m84-98c0-3 1-6 2-7s3-2 6-2c3-1 5-2 5-3 1-2 1-4 1-7v-17c-4-2-7-3-10-3-3-1-7-1-12-1-5 0-9 0-13 2-4 1-7 3-10 6s-5 7-6 12c-2 5-3 11-3 19v134h31c6 0 9-3 9-8v-125z m128-33c-4-2-10-4-17-5-8-2-16-3-27-3-9 0-18 1-24 4-7 2-13 6-17 11-5 5-8 12-10 20-3 8-4 18-4 30 0 23 5 39 13 49 9 11 23 16 41 16 10 0 18-2 24-4 6-3 11-7 14-12 4-4 6-10 7-16 1-7 2-14 2-21 0-2 0-4 0-6 0-2-1-5-1-7 0-3-1-5-1-7-1-2-1-4-2-5h-60c0-8 2-14 6-17 4-3 10-4 19-4 7 0 13 0 17 0 4 0 8 0 11 0 3 0 5 0 7-2 1-2 2-4 2-6v-15z m-32 67c0 10-1 17-3 21-2 3-5 5-11 5-6 0-10-2-12-6-2-4-4-10-4-20h30z" horiz-adv-x="780" />
<glyph glyph-name="star_white" unicode="&#xe815;" d="m38 427c85-78 174-150 272-212-32-109-67-218-105-325-7-20 7-34 23-37 8-5 18-5 28 2 95 68 192 131 287 198 97-72 191-145 292-210 23-14 44 5 45 26 1 4 2 9 0 15-26 108-58 215-106 317 104 66 188 157 284 233 19 14 11 34-4 44-5 6-13 11-23 11h-326c-44 109-88 219-124 331-10 34-59 24-60-5-51-108-97-218-124-335-116 1-232 5-348 6-36 0-39-49-11-59l0 0z m360 0c3 0 6 1 9 1 14-2 30 5 34 24 23 110 62 213 107 315 36-102 77-202 117-302 0 0 0 0 0-1 3-14 13-27 32-27h301c-84-72-162-149-258-206-7-4-11-9-13-15-7-10-8-21-2-34 46-90 78-186 104-284-89 62-175 128-263 192-2 2-5 3-7 5-9 6-21 7-33-1-86-60-173-118-259-177 32 95 62 190 90 286 4 16-2 28-12 35-2 6-6 12-14 17-85 52-164 113-240 178 103-2 205-6 307-6l0 0z m14-8" horiz-adv-x="1065" />
<glyph glyph-name="star_yellow" unicode="&#xe816;" d="m19 435c85-78 174-150 272-211-32-109-67-218-105-326-7-19 7-33 23-36 8-5 18-6 28 2 95 67 192 131 287 197 97-71 191-145 292-209 23-15 44 5 45 25 1 5 2 10 0 15-27 109-58 216-106 317 104 67 188 158 284 233 19 14 11 35-4 45-5 6-13 10-23 10h-326c-44 110-88 219-124 332-10 33-59 24-60-5-51-109-97-219-124-336-116 1-232 6-348 6-36 0-39-48-11-59l0 0z m374-8l-14 9c3 0 6 0 8 1 15-2 31 4 35 23 23 110 62 214 107 316 36-102 77-202 117-302 0-1 0-1 0-1 2-14 13-27 32-27h301c-84-72-162-150-258-206-7-4-11-10-14-16-6-9-7-21-1-33 46-91 78-187 104-284-89 61-175 128-263 192-2 2-5 3-7 4-9 6-21 8-33-1-86-59-173-117-259-177 32 95 62 191 90 287 4 15-2 28-12 35-2 6-6 12-14 16-85 53-164 113-240 178 103-1 205-5 307-5l0 0z" horiz-adv-x="1032" />
<glyph glyph-name="update_location" unicode="&#xe817;" d="m512-27l276 434-209 211c16 0 28 14 28 31v50c0 16-12 30-28 30-15 0-27-14-27-30v-50c0-17 12-31 27-31l0 0z m67 645l105-275h-386c-17 0-30 13-30 30v396c0 16 13 30 30 30h309c17 0 40-10 52-21l33-33c12-11 22-34 22-51v-321c0-17-14-30-30-30l0 0z m50 102c0 17-15 32-32 32h-197c-18 0-32-15-32-32v-97c0-18 14-32 32-32h197c17 0 32 14 32 32v97z m1-212h-266v-19h266v19z m0-73h-266v-19h266v19z m-380-287c0-11-2-20-4-27s-6-13-10-18c-5-4-10-7-16-9-7-2-14-3-22-3-8 0-15 1-21 3-7 2-12 5-16 9-5 5-8 11-11 18s-3 16-3 27v105h10c2 0 3-1 3-3v-102c0-7 1-13 2-18 1-6 3-10 6-14 3-4 7-7 12-9 5-2 11-3 18-3 8 0 14 1 19 3 5 2 9 5 12 9 2 4 4 8 5 14 2 5 2 11 2 18v105h10c2 0 4-1 4-3v-102z m30 50c-3 0-4 1-4 3v6c3 1 6 1 9 2s7 1 11 1c4 0 8 0 11 1s7 0 10 0c9 0 17-1 24-3 7-2 13-5 17-9 5-5 8-11 11-18 2-8 3-17 3-28 0-10-1-19-2-26-2-8-4-14-8-19-3-6-8-10-14-12-6-3-13-4-22-4-8 0-14 1-19 2-4 2-8 3-11 5v-45h-9c-2 0-4 1-4 4v140h-3z m45-95c5 0 10 1 15 2 4 2 8 5 11 8 2 4 4 9 6 15 1 7 2 14 2 24 0 9-1 16-2 22-2 6-4 11-7 15-3 4-8 7-13 8-5 2-12 3-20 3-3 0-6 0-10 0s-7-1-11-1v-89c4-2 9-4 13-5 5-1 10-2 16-2z m153-10c-2 0-3 1-3 4l-1 9c-3-4-8-7-14-10s-13-5-22-5c-8 0-14 2-20 5-5 2-9 7-12 12s-5 12-7 19c-1 7-2 16-2 24 0 22 4 38 12 47 8 9 20 14 35 14 8 0 14-1 19-2 5-2 8-4 11-5v54h9c3 0 4-1 4-3v-163h-9z m-4 101c-4 2-8 4-13 5-4 1-9 2-15 2-6 0-12-1-16-3s-8-4-11-8c-3-4-5-9-6-16-2-6-2-13-2-22 0-17 2-29 6-37s12-13 23-13c5 0 8 1 12 2 3 1 6 2 9 4 3 1 5 3 7 5s4 3 6 5v76z m113-88c-2-2-4-4-7-5-2-2-5-4-8-5-4-2-7-3-11-4-3-1-7-1-11-1-13 0-22 3-28 10-6 6-9 15-9 26 0 14 4 23 11 29 8 5 18 8 32 8h30v9c0 5 0 10-1 13-1 4-3 6-6 9-2 2-5 3-10 4-4 1-9 1-15 1-7 0-13 0-19-1-5-1-9-1-11-1-3 0-4 1-4 4v5c6 2 12 3 19 4 6 0 12 0 18 0 8 0 15 0 21-2 5-2 10-5 13-8s5-8 7-13c1-4 1-10 1-15v-80h-8c-2 0-4 2-4 4l0 9z m-1 48h-30c-6 0-11-1-15-3s-7-3-10-5-4-5-5-8-1-7-1-10c0-10 2-16 7-20 5-4 11-6 19-6 8 0 15 2 21 5 6 3 10 7 14 11v36z m88-51c2 0 3 0 3-1 1 0 1-1 1-2v-6c-6-2-11-2-16-2-5 0-9 0-13 1-3 2-6 3-8 5-2 2-3 5-4 8s-1 6-1 9v83h-11c-2 0-3 1-3 4v7h14v32h9c2 0 4-2 4-4v-28h26c2 0 3-1 3-3v-8h-29v-81c0-3 0-4 0-6 0-2 1-3 2-4s3-2 5-3c3-1 6-1 9-1 2 0 4 0 5 0 2 0 3 0 4 0z m76-12c-8 0-16 1-22 3-6 2-12 6-16 10-4 5-7 11-9 19-2 8-3 17-3 28 0 11 1 21 3 28 2 8 5 14 9 19s9 9 15 11c6 2 12 3 20 3 8 0 15-1 21-4s9-6 12-10c3-4 5-10 6-16 2-6 2-12 2-19 0-3 0-6 0-9s-1-6-1-8h-74c1-7 1-14 3-20 1-5 3-10 6-13 3-4 7-6 11-8 5-2 12-2 19-2 8 0 14 0 19 1 4 1 7 1 9 1 1 0 2 0 3-1 0-1 1-2 1-2v-6c-4-2-8-3-14-3-6-1-13-2-20-2z m-3 110c-7 0-12-1-16-3-5-2-8-6-11-9-2-4-4-9-5-14-1-6-2-11-2-18h62c0 1 1 2 1 3s0 2 0 3c0 6-1 12-2 17 0 4-2 8-4 11-2 4-5 6-9 7-4 2-8 3-14 3z m-687-313c-6 0-9 3-9 8v152h32c6 0 9-3 9-8v-119h43c5 0 8-3 8-8v-25h-83z m149-3c-10 0-18 1-24 4-7 2-13 6-17 11-4 5-7 11-9 19s-3 18-3 29c0 11 1 21 3 29s5 14 9 19c4 5 10 9 17 11 6 3 14 4 24 4s17-1 24-4c7-2 12-6 16-11 4-5 8-11 9-19s3-18 3-29c0-11-1-21-3-29s-5-14-9-19c-4-5-9-9-16-11-7-3-15-4-24-4z m13 63c0 7 0 13 0 18-1 4-1 7-2 10-2 2-3 4-5 4-1 1-3 2-6 2-3 0-5-1-7-2-2 0-3-2-4-4-1-3-2-6-2-10-1-5-1-11-1-18 0-8 0-14 1-18 0-5 1-8 2-10 1-3 2-4 4-5 2-1 4-1 7-1 2 0 5 0 6 1 2 1 3 2 5 5 1 2 1 5 2 10 0 4 0 10 0 18z m142-55c-4-2-9-4-14-6-5-1-11-2-19-2-18 0-31 5-39 15s-12 26-12 48c0 21 4 37 12 48 7 10 20 15 37 15 6 0 11-1 16-2 5-1 9-2 12-3 3-2 4-3 5-5 1-2 2-5 2-8v-15c-5 1-9 1-14 1-5 1-8 1-10 1-5 0-8-1-11-2-2-1-4-3-6-5-1-2-2-5-3-9 0-4 0-9 0-15 0-7 0-12 0-16 1-4 2-8 3-10 1-3 3-4 5-5 3-1 6-2 9-2 1 0 2 0 4 1 1 0 3 0 5 0 1 0 3 0 4 0 2 0 3 0 3 0 4 0 7-1 8-2 2-2 3-4 3-7v-15z m51-6c-11 0-20 3-26 10-6 6-9 16-9 28 0 8 2 15 4 20 3 5 7 9 11 11 5 3 10 4 15 5 6 1 12 1 18 1h14v7c0 5-1 8-5 9s-8 2-16 2c-6 0-11 0-16-1-5 0-9 0-10 0-3 0-5 1-6 2-2 2-2 4-2 6v16c4 2 10 3 17 5s16 3 25 3c18 0 31-4 39-12 8-7 12-18 12-32v-79h-22c-2 0-4 0-5 0-1 1-2 1-3 2 0 1-1 1-2 3 0 1-1 2-2 4l-1 4c-3-3-7-7-12-10-5-3-11-4-18-4z m27 53h-15c-5 0-8-1-11-4-2-2-3-5-3-9 0-5 2-8 4-10 2-1 5-2 10-2 6 0 11 1 15 4v21z m132-51c-4-1-9-2-12-3-4 0-8 0-13 0-6 0-11 0-16 1-5 2-9 4-13 7-3 3-6 7-8 13-1 5-2 12-2 20v51h-5c-6 0-9 3-9 8v22h15l2 29h27c5 0 8-3 8-8v-21h18c5 0 8-3 8-8v-22h-26v-50c0-9 4-13 11-13h7c5 0 8-2 8-8v-18z m38 131c-8 0-13 1-16 4s-5 7-5 13c0 7 1 11 5 14s8 4 16 4 14-2 17-4 5-7 5-14c0-6-2-11-5-13s-9-4-17-4z m20-132h-30c-6 0-9 3-9 8v112h30c6 0 9-3 9-8v-112z m74-3c-10 0-18 1-24 4-7 2-12 6-17 11-4 5-7 11-9 19-2 8-3 18-3 29 0 11 1 21 3 29 2 8 5 14 9 19 5 5 10 9 17 11 6 3 14 4 24 4 9 0 17-1 24-4 7-2 12-6 16-11 4-5 8-11 9-19 2-8 3-18 3-29 0-11-1-21-3-29-1-8-5-14-9-19-4-5-9-9-16-11-7-3-15-4-24-4z m13 63c0 7 0 13 0 18-1 4-1 7-2 10-1 2-3 4-5 4-1 1-3 2-6 2s-5-1-7-2-3-2-4-4c-1-3-2-6-2-10-1-5-1-11-1-18 0-8 0-14 1-18 0-5 1-8 2-10 1-3 2-4 4-5 2-1 4-1 7-1s5 0 6 1c2 1 4 2 5 5 1 2 1 5 2 10s0 10 0 18z m99-60h-30c-6 0-8 3-8 8v112h22c3 0 6-1 7-2s3-3 4-7l1-5c6 6 11 11 16 13s11 4 18 4c22 0 33-14 33-41v-82h-30c-6 0-9 3-9 8v70c0 4 0 7-2 9-2 2-4 3-9 3-2 0-4-1-7-1-2-1-4-2-6-4v-85z" horiz-adv-x="923" />
<glyph glyph-name="update" unicode="&#xe818;" d="m591 572c20 0 35 17 35 38v64c0 21-15 38-35 38s-35-17-35-38v-64c0-21 16-38 35-38l0 0z m0 0l133-350h-490c-21 0-39 17-39 38v503c0 21 18 38 39 38h392c21 0 51-12 66-26l43-42c15-14 27-43 27-65v-408c0-21-17-38-38-38l0 0z m63 129c0 22-18 40-41 40h-250c-22 0-41-18-41-40v-123c0-23 19-41 41-41h250c23 0 41 18 41 41v123z m1-269h-338v-24h338v24z m0-93h-338v-24h338v24z m-465-321c0-13-1-24-3-34-2-10-5-19-10-26-6-7-13-12-22-16-9-3-21-5-36-5-13 0-24 1-33 3-9 3-17 7-23 13s-11 14-13 25c-3 10-5 24-5 40v129h41c7 0 11-4 11-11v-127c0-5 0-9 1-13 1-4 2-7 3-10 2-3 4-4 6-6 3-1 7-2 11-2 4 0 8 1 11 2 2 1 4 3 6 6 1 2 2 6 2 10s1 8 1 14v137h41c7 0 11-4 11-11v-118z m114-79c-6 0-12 1-16 3-5 2-10 4-14 7v-59h-39c-7 0-11 4-11 10v96c0 9 0 19 1 29 0 10 1 21 2 31h-5c-6 0-8 3-8 10v24c2 0 5 1 10 2s9 2 15 2c6 1 13 2 19 2 7 1 14 1 22 1 13 0 25-1 35-4s17-6 23-12c6-6 11-14 13-24 3-10 4-22 4-37 0-15-1-28-4-39s-6-18-10-25c-5-6-10-10-16-13-7-3-13-4-21-4z m-18 37c4 0 7 1 10 2s4 3 6 7c1 3 2 7 2 13 1 6 1 14 1 23 0 7 0 13 0 18s-2 8-3 11-4 6-7 7c-3 2-8 2-13 2-2 0-3 0-5 0-1 0-2 0-3 0v-80c3-2 8-3 12-3z m142-38c-7 0-14 2-20 4s-11 7-15 13c-4 7-8 15-10 25s-4 22-4 37c0 28 5 49 14 61 10 13 24 19 44 19 6 0 11 0 15-1 4-1 8-2 10-3v61h39c7 0 11-3 11-10v-203h-29c-4 0-7 0-9 2-2 1-3 4-5 9l-2 5c-4-5-10-9-16-13-7-4-14-6-23-6z m34 122c-2 1-4 1-6 1-2 1-4 1-6 1-5 0-8-1-11-3-3-1-5-4-6-7-1-3-2-7-3-13 0-5 0-11 0-17 0-9 0-16 0-22s2-10 3-13 3-6 5-7c2-1 5-2 8-2 4 0 7 1 9 2 3 0 5 2 7 3v77z m120-121c-14 0-25 4-33 13s-11 20-11 36c0 11 2 19 5 26 4 6 8 11 14 14 6 3 12 6 20 7 7 1 15 1 23 1h18v9c0 6-3 10-7 12-4 1-11 2-20 2-8 0-15 0-22-1-6 0-11 0-12 0-4 0-7 1-8 3s-3 4-3 7v20c6 3 13 5 23 7 9 2 20 4 32 4 23 0 40-5 50-15 10-10 15-24 15-42v-101h-29c-2 0-4 0-5 0s-3 1-4 2c-1 1-2 2-3 4s-1 3-2 6l-2 4c-4-4-9-8-15-12-7-4-14-6-24-6z m35 68h-19c-6 0-11-1-13-4-3-3-4-7-4-12 0-6 1-11 4-13 3-2 7-3 13-3 8 0 14 2 19 6v26z m171-65c-6-1-12-3-17-4s-10-1-15-1c-8 0-15 1-22 3s-11 4-16 8c-4 4-8 10-10 16s-4 16-4 26v67h-5c-8 0-12 3-12 10v28h19l3 37h34c7 0 11-3 11-10v-27h23c7 0 11-4 11-10v-28h-34v-66c0-10 5-15 14-15h9c7 0 11-4 11-11v-23z m144 4c-6-2-13-4-22-6-9-2-20-3-33-3-12 0-22 1-30 4-9 3-16 8-22 14s-9 15-12 26c-3 10-4 22-4 37 0 28 5 49 16 62s28 19 51 19c12 0 22-2 29-6 8-3 14-8 18-13 5-6 8-13 9-21 2-8 3-17 3-26 0-2 0-5-1-8 0-3 0-6-1-9 0-3-1-5-1-8-1-3-2-5-2-6h-75c0-10 2-17 7-21 5-4 13-6 23-6 10 0 17 0 22 0 6 0 10 1 14 1 4 0 6-1 8-3s3-5 3-8v-19z m-40 85c0 12-1 21-3 25s-7 7-14 7c-8 0-13-2-16-7-2-5-4-14-4-25h37z" horiz-adv-x="946" />
</font>
</defs>
</svg>
